<mxfile host="65bd71144e">
    <diagram id="RQlR1G9lBBgjaOKuBKlE" name="ページ1">
        <mxGraphModel dx="1000" dy="631" grid="1" gridSize="10" guides="1" tooltips="1" connect="1" arrows="1" fold="1" page="1" pageScale="1" pageWidth="827" pageHeight="1169" math="0" shadow="0">
            <root>
                <mxCell id="0"/>
                <mxCell id="1" parent="0"/>
                <mxCell id="2" value="応答と飽和&lt;div&gt;～社会の機能～&lt;/div&gt;" style="text;html=1;align=center;verticalAlign=middle;whiteSpace=wrap;rounded=0;fillColor=#dae8fc;strokeColor=#6c8ebf;" parent="1" vertex="1">
                    <mxGeometry x="40" y="40" width="200" height="40" as="geometry"/>
                </mxCell>
                <mxCell id="4" value="社会の機能" style="text;html=1;align=center;verticalAlign=middle;whiteSpace=wrap;rounded=0;fillColor=#d5e8d4;strokeColor=#82b366;" parent="1" vertex="1">
                    <mxGeometry x="40" y="100" width="360" height="40" as="geometry"/>
                </mxCell>
                <mxCell id="14" value="集団と個人" style="text;html=1;align=center;verticalAlign=middle;whiteSpace=wrap;rounded=0;fillColor=#d5e8d4;strokeColor=#82b366;" parent="1" vertex="1">
                    <mxGeometry x="440" y="100" width="280" height="40" as="geometry"/>
                </mxCell>
                <mxCell id="28" value="社会の機能" style="rounded=1;whiteSpace=wrap;html=1;" vertex="1" parent="1">
                    <mxGeometry x="40" y="240" width="120" height="40" as="geometry"/>
                </mxCell>
                <mxCell id="29" value="一人ひとりに「位置づけ」を与える" style="rounded=1;whiteSpace=wrap;html=1;" vertex="1" parent="1">
                    <mxGeometry x="200" y="160" width="200" height="40" as="geometry"/>
                </mxCell>
                <mxCell id="30" value="一人ひとりに「役割」を与える" style="rounded=1;whiteSpace=wrap;html=1;" vertex="1" parent="1">
                    <mxGeometry x="200" y="240" width="200" height="40" as="geometry"/>
                </mxCell>
                <mxCell id="31" value="" style="endArrow=none;html=1;exitX=1;exitY=0.5;exitDx=0;exitDy=0;entryX=0;entryY=0.5;entryDx=0;entryDy=0;" edge="1" parent="1" source="28" target="29">
                    <mxGeometry width="50" height="50" relative="1" as="geometry">
                        <mxPoint x="310" y="310" as="sourcePoint"/>
                        <mxPoint x="360" y="260" as="targetPoint"/>
                    </mxGeometry>
                </mxCell>
                <mxCell id="32" value="" style="endArrow=none;html=1;entryX=0;entryY=0.5;entryDx=0;entryDy=0;" edge="1" parent="1" target="30">
                    <mxGeometry width="50" height="50" relative="1" as="geometry">
                        <mxPoint x="160" y="260" as="sourcePoint"/>
                        <mxPoint x="210" y="190" as="targetPoint"/>
                    </mxGeometry>
                </mxCell>
                <mxCell id="33" value="権力が「正統性」をもつ" style="rounded=1;whiteSpace=wrap;html=1;" vertex="1" parent="1">
                    <mxGeometry x="200" y="320" width="200" height="40" as="geometry"/>
                </mxCell>
                <mxCell id="34" value="" style="endArrow=none;html=1;entryX=0;entryY=0.5;entryDx=0;entryDy=0;exitX=1;exitY=0.5;exitDx=0;exitDy=0;" edge="1" parent="1" source="28" target="33">
                    <mxGeometry width="50" height="50" relative="1" as="geometry">
                        <mxPoint x="170" y="270" as="sourcePoint"/>
                        <mxPoint x="210" y="270" as="targetPoint"/>
                    </mxGeometry>
                </mxCell>
                <mxCell id="36" value="集団" style="ellipse;whiteSpace=wrap;html=1;aspect=fixed;" vertex="1" parent="1">
                    <mxGeometry x="440" y="220" width="80" height="80" as="geometry"/>
                </mxCell>
                <mxCell id="37" value="個人" style="ellipse;whiteSpace=wrap;html=1;aspect=fixed;" vertex="1" parent="1">
                    <mxGeometry x="640" y="220" width="80" height="80" as="geometry"/>
                </mxCell>
                <mxCell id="38" value="" style="endArrow=classic;html=1;" edge="1" parent="1">
                    <mxGeometry width="50" height="50" relative="1" as="geometry">
                        <mxPoint x="540" y="280" as="sourcePoint"/>
                        <mxPoint x="620" y="280" as="targetPoint"/>
                    </mxGeometry>
                </mxCell>
                <mxCell id="39" value="集団にとっての個人の意味" style="text;html=1;align=center;verticalAlign=middle;whiteSpace=wrap;rounded=0;" vertex="1" parent="1">
                    <mxGeometry x="500" y="310" width="170" height="30" as="geometry"/>
                </mxCell>
                <mxCell id="41" value="" style="endArrow=classic;html=1;" edge="1" parent="1">
                    <mxGeometry width="50" height="50" relative="1" as="geometry">
                        <mxPoint x="620" y="240" as="sourcePoint"/>
                        <mxPoint x="540" y="240" as="targetPoint"/>
                    </mxGeometry>
                </mxCell>
                <mxCell id="42" value="個人にとっての集団の意味" style="text;html=1;align=center;verticalAlign=middle;whiteSpace=wrap;rounded=0;" vertex="1" parent="1">
                    <mxGeometry x="500" y="170" width="170" height="30" as="geometry"/>
                </mxCell>
                <mxCell id="43" value="社会の目的、目標、理念、理想が、&lt;div&gt;個人のそれと関連して意味をもつとき、&lt;/div&gt;&lt;div&gt;はじめて社会が意味のあるものとなる。&lt;/div&gt;&lt;div&gt;&lt;br&gt;※社会を、組織、集団と置き換えても可&lt;/div&gt;" style="shape=note;whiteSpace=wrap;html=1;backgroundOutline=1;darkOpacity=0.05;fillColor=#fff2cc;strokeColor=#d6b656;" vertex="1" parent="1">
                    <mxGeometry x="460" y="350" width="240" height="100" as="geometry"/>
                </mxCell>
            </root>
        </mxGraphModel>
    </diagram>
</mxfile>